<?xml version="1.0" standalone="no"?>
<!DOCTYPE svg PUBLIC "-//W3C//DTD SVG 20010904//EN"
 "http://www.w3.org/TR/2001/REC-SVG-20010904/DTD/svg10.dtd">
<svg version="1.0" xmlns="http://www.w3.org/2000/svg"
 width="1024.000000pt" height="1024.000000pt" viewBox="0 0 1024.000000 1024.000000"
 preserveAspectRatio="xMidYMid meet">

<g transform="translate(0.000000,1024.000000) scale(0.100000,-0.100000)"
fill="#1589e8" stroke="none">
<path d="M1373 8179 c-17 -5 -43 -23 -57 -40 l-26 -31 0 -2449 0 -2449 34 -38
34 -37 1566 -3 1566 -2 0 -430 0 -430 -569 0 -568 0 -34 -23 c-45 -30 -61 -63
-56 -115 6 -52 36 -88 86 -102 23 -6 658 -10 1784 -10 1872 0 1786 -2 1831 49
11 12 21 41 24 70 4 45 2 52 -31 87 l-35 39 -581 3 -581 2 0 430 0 430 1551 0
c1703 0 1595 -4 1632 59 16 27 17 187 17 2474 l0 2445 -26 31 c-14 17 -42 35
-62 41 -48 13 -7453 12 -7499 -1z m7347 -2519 l0 -2280 -3595 0 -3595 0 0
2280 0 2280 3595 0 3595 0 0 -2280z m-3200 -2960 l0 -430 -395 0 -395 0 0 430
0 430 395 0 395 0 0 -430z"/>
<path d="M5379 6968 c0 -2 -166 -590 -368 -1308 l-367 -1305 125 -3 c68 -1
125 -1 127 0 3 3 734 2605 734 2613 0 5 -249 7 -251 3z"/>
<path d="M3605 6146 l-830 -353 0 -149 0 -148 835 -358 c459 -197 836 -358
838 -358 1 0 1 71 0 157 l-3 158 -652 270 c-359 149 -655 273 -658 276 -2 3
291 127 653 275 l657 270 3 157 c1 86 -1 157 -5 156 -5 0 -381 -159 -838 -353z"/>
<path d="M5822 6342 l3 -157 652 -269 c359 -148 651 -271 649 -275 -2 -3 -297
-127 -655 -276 l-651 -270 0 -157 c0 -139 2 -157 16 -151 8 3 385 164 837 358
l822 352 0 147 0 147 -790 335 c-434 185 -811 344 -838 355 l-48 19 3 -158z"/>
</g>
</svg>
