<?xml version="1.0" standalone="no"?>
<!DOCTYPE svg PUBLIC "-//W3C//DTD SVG 20010904//EN"
 "http://www.w3.org/TR/2001/REC-SVG-20010904/DTD/svg10.dtd">
<svg version="1.0" xmlns="http://www.w3.org/2000/svg"
 width="350.000000pt" height="286.000000pt" viewBox="0 0 350.000000 286.000000"
 preserveAspectRatio="xMidYMid meet">

<g transform="translate(0.000000,286.000000) scale(0.100000,-0.100000)"
fill="#fff" stroke="none">
<path d="M206 2803 c-81 -2 -145 -8 -153 -15 -18 -15 -19 -2208 -1 -2226 9 -9
182 -12 715 -12 l703 0 0 -200 0 -200 -259 0 c-223 0 -262 -2 -275 -16 -21
-21 -20 -47 2 -67 17 -16 86 -17 788 -17 423 0 786 3 807 6 29 5 39 12 44 32
14 56 10 57 -281 60 l-266 2 0 200 0 200 696 0 c460 0 702 4 715 10 19 10 19
33 19 1113 0 677 -4 1108 -10 1117 -8 13 -192 15 -1557 15 -851 1 -1611 0
-1687 -2z m3159 -1123 l0 -1025 -1612 -3 -1613 -2 0 1030 0 1030 1613 -2 1612
-3 0 -1025z m-1435 -1330 l0 -200 -180 0 -180 0 0 200 0 200 180 0 180 0 0
-200z"/>
<path d="M1865 2248 c-3 -7 -76 -267 -163 -578 l-159 -565 50 -3 c27 -2 51 -2
52 0 2 2 73 255 160 563 86 308 158 568 161 578 5 15 -2 17 -46 17 -31 0 -52
-5 -55 -12z"/>
<path d="M1067 1892 l-367 -157 2 -65 3 -64 365 -157 365 -156 3 60 c2 33 -1
63 -5 68 -4 4 -135 60 -290 125 -156 64 -283 120 -283 124 0 3 130 60 290 126
l290 119 0 68 c0 37 -1 67 -2 66 -2 -1 -168 -71 -371 -157z"/>
<path d="M2070 1978 l0 -63 290 -120 c160 -66 290 -122 290 -126 0 -3 -129
-59 -286 -124 -157 -66 -288 -124 -291 -131 -2 -6 -3 -36 -1 -66 l3 -55 365
157 365 157 0 63 0 64 -360 153 c-198 84 -363 153 -367 153 -5 0 -8 -28 -8
-62z"/>
</g>
</svg>
